<svg width="40" height="40" viewBox="0 0 40 40" fill="none" xmlns="http://www.w3.org/2000/svg">
<path d="M22.6599 28.01L21.1399 29.53C20.5199 30.15 19.4999 30.15 18.8799 29.53L17.3599 28.01C17.0999 27.75 16.5899 27.54 16.2299 27.54H14.0799C13.1999 27.54 12.4799 26.8199 12.4799 25.9399V23.79C12.4799 23.43 12.2699 22.92 12.0099 22.66L10.4899 21.14C9.8699 20.52 9.8699 19.5 10.4899 18.88L12.0099 17.36C12.2699 17.1 12.4799 16.59 12.4799 16.23V14.08C12.4799 13.2 13.1999 12.48 14.0799 12.48" stroke="#B2ABAB" stroke-width="1.5" stroke-linecap="round" stroke-linejoin="round"/>
<path d="M17.3398 11.99L18.8598 10.47C19.4798 9.85 20.4998 9.85 21.1198 10.47L22.6399 11.99C22.8999 12.25 23.4098 12.46 23.7698 12.46H25.9199C26.7999 12.46 27.5198 13.1801 27.5198 14.0601V16.21C27.5198 16.57 27.7298 17.08 27.9898 17.34L29.5099 18.86C30.1299 19.48 30.1299 20.5 29.5099 21.12L27.9898 22.64C27.7298 22.9 27.5198 23.4101 27.5198 23.7701V25.9201C27.5198 26.8001 26.7999 27.5201 25.9199 27.5201" stroke="#B2ABAB" stroke-width="1.5" stroke-linecap="round" stroke-linejoin="round"/>
<path d="M17 23L23 17" stroke="#B2ABAB" stroke-width="1.5" stroke-linecap="round" stroke-linejoin="round"/>
<path d="M22.4945 22.5H22.5035" stroke="#B2ABAB" stroke-width="2" stroke-linecap="round" stroke-linejoin="round"/>
<path d="M17.4945 17.5H17.5035" stroke="#B2ABAB" stroke-width="2" stroke-linecap="round" stroke-linejoin="round"/>
</svg>
